<?xml version="1.0" encoding="UTF-8"?><svg id="b" xmlns="http://www.w3.org/2000/svg" viewBox="0 0 339.9 208.75"><g id="c"><g id="d"><path id="e" d="m313.25,20.38c-1.09-1.98-1.96-4.07-2.58-6.25-.84-2.92-4.16-4.18-6.84-2.71-.03.02-.05.04-.08.05-8.58,4.71-19.34,1.57-24.05-7-.13-.23-.25-.46-.36-.68-1.28-2.69-4.47-3.86-7.19-2.63-1.31.61-2.59,1.26-3.88,1.95-21.81,11.99-33.65,36.46-29.54,61.01.61,3.58-3.04,6.41-6.38,5.01-39.89-16.78-84.78-17.19-124.97-1.14-3.37,1.35-6.84-1.55-6.26-5.15,3.89-24.27-7.8-48.39-29.26-60.38-1.22-.68-2.46-1.31-3.7-1.9-2.71-1.3-5.96-.22-7.35,2.45-.13.25-.25.48-.38.73-4.78,8.54-15.58,11.6-24.14,6.84-.02-.02-.05-.02-.07-.03-2.21-1.32-5.06-.59-6.38,1.61-.2.33-.35.68-.46,1.05-.63,2.16-1.52,4.25-2.63,6.21-5.4,9.68-15.68,15.6-26.76,15.43.64.28,1.27.59,1.9.94,11.94,6.67,16.21,21.75,9.55,33.68-.28.51-.59,1.02-.91,1.5-1.9,2.89-.15,6.79,3.27,7.19,15.87,1.83,28.61,13.95,31.22,29.7.39,2.41,2.59,4.1,5.02,3.83,9.69-1.13,18.95-4.65,26.94-10.24,3.24-2.3,7.67.31,7.27,4.26-2.58,24.83,2.25,55.61,11.04,69.37,10.89,17.02,53.26,33.62,73.46,33.68,20.2.08,62.69-16.24,73.7-33.19,8.97-13.84,14.04-45.15,11.43-70.13-.27-2.55,1.58-4.85,4.13-5.12,1.17-.12,2.34.2,3.28.91,8.16,6.11,17.77,10,27.89,11.27,2.46.31,4.73-1.35,5.19-3.78,2.7-15.75,15.52-27.79,31.41-29.5,3.44-.36,5.19-4.26,3.32-7.15-.31-.5-.61-1.01-.89-1.52-6.58-11.97-2.21-27.01,9.76-33.59,0,0,.01,0,.02,0,.61-.35,1.25-.67,1.9-.94-11.08.11-21.32-5.89-26.65-15.61m-179.41,120.48c-11.78-.03-21.26-13.88-21.21-30.93,0-3.27.38-6.53,1.12-9.71-.07.81-.08,1.62-.1,2.45-.05,15.25,9,27.62,20.22,27.67,11.23.03,20.37-12.29,20.42-27.52,0-.83-.02-1.65-.08-2.46.73,3.19,1.08,6.46,1.06,9.73-.05,17.05-9.65,30.83-21.43,30.78m20.67,8.16c.05-13.7,12.01-25.03,14.64-27.36.29-.26.73-.26,1.02,0,2.61,2.35,14.49,13.76,14.45,27.46-.05,13.45-5.24,24.63-12.09,27.24-1.02.32-2.09.48-3.16.46-1.11-.02-2.2-.22-3.24-.61-.03,0-.06-.02-.08-.03-6.66-2.87-11.6-13.96-11.55-27.16m68.28,11.12c-9.38,21.99-33.07,35.7-56.55,36.28-.97.02-1.17-1.45-.2-1.65,22.19-4.31,43.07-15.99,55.29-35.4.53-.83,1.88-.13,1.45.78m-17.46-19.03c-11.78-.03-21.26-13.88-21.21-30.93,0-3.28.38-6.54,1.12-9.73-.07.81-.08,1.64-.08,2.46-.05,15.25,9,27.62,20.2,27.67,11.23.03,20.37-12.29,20.42-27.52,0-.84-.02-1.65-.07-2.46.71,3.19,1.07,6.46,1.06,9.73-.07,17.03-9.66,30.83-21.44,30.78" style="fill:#c099a0; stroke-width:0px;"/></g></g></svg>