<?xml version="1.0" encoding="UTF-8"?>
<svg id="Layer_1" data-name="Layer 1" xmlns="http://www.w3.org/2000/svg" xmlns:xlink="http://www.w3.org/1999/xlink" viewBox="0 0 499.01 306.46">
  <defs>
    <style>
      .cls-1 {
        clip-path: url(#clippath);
      }

      .cls-2 {
        fill: white;
      }

      .cls-2, .cls-3 {
        stroke-width: 0px;
      }
    </style>
    <clipPath id="clippath">
      <rect class="cls-2" width="499.01" height="306.46"/>
    </clipPath>
  </defs>
  <g id="Group_98" data-name="Group 98">
    <g class="cls-1">
      <g id="Group_97" data-name="Group 97">
        <path id="Path_15234-2" data-name="Path 15234-2" class="cls-3" d="m459.89,29.9c-1.6-2.9-2.87-5.98-3.78-9.17-1.24-4.29-6.11-6.14-10.04-3.98-.04.03-.08.05-.12.07-12.59,6.91-28.4,2.31-35.31-10.28-.19-.34-.36-.68-.53-.99-1.88-3.95-6.57-5.66-10.55-3.86-1.92.9-3.81,1.84-5.7,2.86-32.02,17.61-49.41,53.53-43.36,89.57.9,5.26-4.46,9.41-9.36,7.35-58.57-24.63-124.47-25.23-183.47-1.67-4.95,1.99-10.04-2.28-9.19-7.57,5.7-35.63-11.45-71.04-42.95-88.65-1.79-.99-3.61-1.92-5.43-2.79-3.98-1.91-8.76-.33-10.79,3.59-.19.36-.36.7-.56,1.07-7.02,12.54-22.87,17.04-35.43,10.04-.02-.02-.07-.02-.1-.05-3.24-1.93-7.43-.87-9.36,2.37-.29.48-.52,1-.68,1.54-.93,3.18-2.23,6.24-3.86,9.12-7.93,14.21-23.02,22.91-39.29,22.65.95.41,1.87.87,2.79,1.38,17.52,9.79,23.8,31.92,14.02,49.45-.41.75-.87,1.5-1.33,2.21-2.79,4.24-.22,9.97,4.8,10.55,23.3,2.68,42,20.47,45.84,43.61.57,3.54,3.81,6.01,7.37,5.63,14.23-1.66,27.82-6.83,39.56-15.04,4.75-3.37,11.25.46,10.67,6.26-3.78,36.45,3.3,81.64,16.2,101.84,15.98,24.98,78.19,49.35,107.85,49.45,29.66.12,92.04-23.84,108.19-48.72,13.17-20.32,20.62-66.28,16.78-102.95-.4-3.75,2.32-7.11,6.07-7.51,1.72-.18,3.44.29,4.82,1.33,11.98,8.98,26.09,14.68,40.94,16.54,3.61.46,6.95-1.98,7.62-5.55,3.97-23.12,22.79-40.8,46.11-43.32,5.04-.53,7.62-6.26,4.88-10.5-.46-.73-.9-1.48-1.31-2.23-9.66-17.58-3.24-39.66,14.33-49.32,0,0,.02,0,.02-.01.9-.52,1.83-.98,2.79-1.38-16.27.16-31.3-8.65-39.12-22.92M196.5,206.78c-17.29-.05-31.21-20.37-31.14-45.4,0-4.8.56-9.59,1.65-14.26-.1,1.19-.12,2.38-.15,3.59-.07,22.39,13.22,40.55,29.69,40.62,16.49.05,29.9-18.04,29.98-40.41,0-1.21-.02-2.43-.12-3.61,1.07,4.69,1.59,9.48,1.55,14.29-.07,25.03-14.16,45.26-31.46,45.18m30.34,11.98c.07-20.11,17.63-36.74,21.49-40.16.43-.39,1.08-.39,1.5,0,3.83,3.44,21.27,20.2,21.22,40.31-.07,19.74-7.69,36.16-17.75,39.99-1.5.47-3.06.7-4.63.68-1.62-.03-3.23-.33-4.75-.9-.04,0-.08-.03-.12-.05-9.77-4.22-17.03-20.49-16.95-39.87m100.24,16.32c-13.78,32.28-48.55,52.41-83.02,53.26-1.43.02-1.72-2.13-.29-2.43,32.57-6.33,63.23-23.48,81.18-51.97.78-1.21,2.76-.19,2.13,1.14m-25.64-27.94c-17.29-.05-31.21-20.37-31.14-45.4,0-4.81.56-9.6,1.65-14.29-.1,1.19-.12,2.4-.12,3.61-.07,22.39,13.22,40.55,29.66,40.62,16.49.05,29.9-18.04,29.98-40.41,0-1.24-.02-2.43-.1-3.61,1.05,4.69,1.57,9.48,1.55,14.29-.1,25-14.19,45.26-31.48,45.18"/>
      </g>
    </g>
  </g>
</svg>