<?xml version="1.0" encoding="UTF-8"?>
<svg id="Layer_2" data-name="Layer 2" xmlns="http://www.w3.org/2000/svg" viewBox="0 0 813.5 499.59">
  <defs>
    <style>
      .cls-1 {
        fill: #fff;
        stroke-width: 0px;
      }
    </style>
  </defs>
  <g id="neg-Logo">
    <g id="Group_97" data-name="Group 97">
      <path id="Path_15234-2" data-name="Path 15234-2" class="cls-1" d="m749.72,48.76c-2.62-4.73-4.68-9.75-6.17-14.95-2.02-7-9.96-10-16.37-6.48-.06.05-.13.09-.2.12-20.53,11.26-46.29,3.76-57.57-16.76-.32-.55-.59-1.11-.87-1.62-3.06-6.43-10.71-9.23-17.2-6.29-3.12,1.46-6.21,3-9.29,4.67-52.2,28.7-80.55,87.26-70.69,146.01,1.46,8.58-7.27,15.34-15.26,11.98-95.47-40.15-202.91-41.13-299.11-2.73-8.06,3.24-16.37-3.72-14.99-12.33,9.3-58.09-18.67-115.8-70.02-144.5-2.93-1.62-5.89-3.12-8.86-4.55-6.48-3.12-14.27-.53-17.59,5.85-.32.59-.59,1.15-.91,1.74-11.45,20.45-37.29,27.77-57.77,16.37-.04-.04-.12-.04-.16-.08-5.28-3.15-12.12-1.42-15.27,3.86-.47.79-.84,1.63-1.1,2.51-1.52,5.18-3.63,10.17-6.29,14.86C51.12,69.59,26.52,83.77,0,83.36c1.54.67,3.04,1.42,4.55,2.25,28.57,15.96,38.79,52.04,22.85,80.61-.67,1.23-1.42,2.45-2.17,3.6-4.55,6.92-.36,16.25,7.83,17.2,37.98,4.37,68.46,33.38,74.73,71.09.93,5.77,6.21,9.8,12.02,9.17,23.19-2.71,45.35-11.13,64.49-24.51,7.75-5.5,18.35.75,17.4,10.2-6.17,59.42,5.37,133.08,26.41,166.01,26.06,40.72,127.47,80.45,175.83,80.61,48.35.2,150.05-38.86,176.38-79.43,21.47-33.13,33.61-108.05,27.36-167.83-.65-6.11,3.78-11.6,9.89-12.25,2.8-.3,5.61.48,7.86,2.17,19.53,14.63,42.53,23.93,66.74,26.96,5.88.74,11.33-3.23,12.41-9.05,6.47-37.69,37.15-66.51,75.17-70.61,8.22-.87,12.41-10.2,7.95-17.12-.75-1.19-1.46-2.41-2.13-3.64-15.75-28.65-5.29-64.65,23.37-80.39.01,0,.03-.01.04-.02,1.47-.85,2.99-1.6,4.55-2.25-26.52.25-51.03-14.11-63.78-37.36m-429.39,288.33c-28.19-.08-50.89-33.21-50.77-74.01,0-7.83.91-15.63,2.69-23.25-.16,1.94-.2,3.87-.24,5.85-.12,36.49,21.55,66.1,48.4,66.22,26.89.08,48.75-29.41,48.87-65.87,0-1.98-.04-3.95-.2-5.89,1.75,7.64,2.59,15.45,2.53,23.29-.12,40.8-23.09,73.77-51.28,73.66m49.46,19.53c.12-32.78,28.74-59.9,35.03-65.47.69-.63,1.76-.63,2.45,0,6.25,5.61,34.67,32.93,34.6,65.71-.12,32.18-12.53,58.94-28.94,65.19-2.44.77-4.99,1.15-7.55,1.11-2.65-.04-5.27-.54-7.75-1.46-.07-.02-.14-.04-.2-.08-15.93-6.88-27.76-33.41-27.64-65m163.41,26.61c-22.46,52.62-79.16,85.44-135.34,86.82-2.33.04-2.81-3.48-.47-3.95,53.1-10.32,103.08-38.27,132.33-84.72,1.27-1.98,4.51-.32,3.48,1.86m-41.79-45.55c-28.19-.08-50.89-33.21-50.77-74.01,0-7.84.91-15.65,2.69-23.29-.16,1.94-.2,3.91-.2,5.89-.12,36.49,21.55,66.1,48.35,66.22,26.89.08,48.75-29.41,48.87-65.87,0-2.02-.04-3.95-.16-5.89,1.71,7.64,2.56,15.45,2.53,23.29-.16,40.76-23.13,73.77-51.32,73.66"/>
    </g>
  </g>
</svg>